<svg width="35" height="36" viewBox="0 0 35 36" fill="none" xmlns="http://www.w3.org/2000/svg">
<path d="M17.5001 0.5C7.83537 0.5 0 8.33501 0 18.0001C0 27.6651 7.83537 35.5001 17.5001 35.5001C27.1647 35.5001 35.0001 27.6651 35.0001 18.0001C35.0001 8.33501 27.1647 0.5 17.5001 0.5ZM26.377 19.8927C27.1927 20.6894 28.0556 21.4392 28.7878 22.3182C29.1122 22.7071 29.418 23.1092 29.6507 23.5614C29.983 24.2063 29.683 24.9134 29.1058 24.9517L25.5205 24.951C24.5946 25.0276 23.8577 24.6542 23.2365 24.0212C22.7406 23.5166 22.2805 22.9778 21.8028 22.4561C21.6077 22.242 21.4022 22.0404 21.1573 21.8818C20.6685 21.5638 20.2439 21.6612 19.9639 22.1718C19.6785 22.6913 19.6133 23.2671 19.5861 23.8453C19.5471 24.6907 19.2921 24.9116 18.4439 24.9514C16.6314 25.0362 14.9117 24.7613 13.3133 23.8475C11.9033 23.0415 10.8119 21.904 9.8609 20.616C8.00903 18.1053 6.59076 15.3497 5.31644 12.515C5.02963 11.8766 5.23945 11.535 5.94375 11.5217C7.11388 11.4992 8.28402 11.502 9.45415 11.5206C9.93036 11.5282 10.2455 11.8007 10.4284 12.25C11.0608 13.8058 11.8359 15.286 12.8074 16.6588C13.0662 17.0243 13.3305 17.3889 13.7068 17.647C14.1221 17.932 14.4387 17.8379 14.6345 17.3742C14.7598 17.0795 14.8139 16.7644 14.8411 16.4486C14.9342 15.3669 14.9453 14.2856 14.7842 13.2082C14.6839 12.534 14.3048 12.0986 13.6327 11.9711C13.2904 11.9063 13.3405 11.7795 13.507 11.584C13.796 11.246 14.0666 11.0369 14.6077 11.0369L18.6584 11.0362C19.2968 11.1615 19.44 11.448 19.5267 12.091L19.5302 16.5925C19.5227 16.8414 19.6552 17.579 20.1021 17.7419C20.4601 17.8601 20.6964 17.5729 20.9106 17.3462C21.882 16.3154 22.5741 15.0987 23.1939 13.8394C23.4674 13.2841 23.7034 12.7094 23.9326 12.1336C24.103 11.7079 24.368 11.4984 24.8485 11.5056L28.7491 11.5103C28.8641 11.5103 28.9808 11.5113 29.0947 11.531C29.7521 11.6435 29.9322 11.9263 29.7288 12.5676C29.4087 13.5752 28.7867 14.4145 28.1788 15.2559C27.5271 16.1568 26.8321 17.0261 26.1869 17.931C25.5939 18.7581 25.6408 19.1745 26.377 19.8927Z" fill="#757575"/>
</svg>
